<svg id="Capa_1" enable-background="new 0 0 512 512" height="512" viewBox="0 0 512 512" width="512" xmlns="http://www.w3.org/2000/svg"><g><g><path d="m403.3 494.02-67.06-1.83 41.7-52.54c1.962 4.206 22.245 47.691 25.36 54.37z" fill="#b3f1ff"/><path d="m372.85 343c1.71 34.27-25.61 63-59.92 63h-113.86c-34.31 0-61.63-28.73-59.92-63l11.85-237h58v90h90v-90h62z" fill="#d8ec84"/><path d="m175.76 25.81-41.7 52.54c-1.962-4.206-22.245-47.691-25.36-54.37z" fill="#b3f1ff"/></g><g><path d="m382.837 342.501-11.85-237c-.266-5.322-4.659-9.5-9.987-9.5h-62c-5.523 0-10 4.477-10 10v80h-70v-80c0-5.523-4.477-10-10-10h-58c-5.329 0-9.722 4.179-9.987 9.5l-11.851 237.001c-1.997 40.029 29.834 73.498 69.908 73.498h113.86c40.078 0 71.905-33.473 69.907-73.499zm-233.7.999 11.376-227.5h38.487v80c0 5.523 4.477 10 10 10h90c5.523 0 10-4.477 10-10v-80h42.487l11.375 227.499c1.427 28.589-21.305 52.501-49.932 52.501h-113.86c-28.626 0-51.358-23.911-49.933-52.5z"/><path d="m272.44.009c-5.516-.229-10.18 4.053-10.412 9.571s4.053 10.18 9.571 10.412c123.731 5.204 220.542 108.867 220.401 235.997-.08 75.717-39.081 152.293-98.042 194.346l-6.956-14.912c-1.465-3.14-4.452-5.299-7.893-5.704-3.444-.405-6.848 1-9.002 3.715l-41.7 52.541c-2.354 2.967-2.831 7.01-1.23 10.443s5.004 5.666 8.791 5.77l67.06 1.829c3.342.107 6.68-1.534 8.633-4.509 1.901-2.897 2.167-6.573.702-9.714l-9.82-21.054c64.159-44.1 109.366-126.901 109.457-212.729.149-134.085-101.163-250.18-239.56-256.002zm84.068 482.731 19.208-24.202 11.682 25.044z"/><circle cx="75" cy="424" r="10"/><path d="m114.545 446.101c-4.387-3.354-10.664-2.516-14.018 1.872s-2.516 10.664 1.872 14.018c40.058 30.62 87.487 47.91 137.16 50.001 5.577.228 10.182-4.105 10.412-9.57.232-5.519-4.053-10.18-9.571-10.412-45.552-1.918-89.072-17.793-125.855-45.909z"/><path d="m39.85 393.08c2.929 4.682 9.098 6.105 13.781 3.175 4.683-2.929 6.104-9.099 3.175-13.781-24.064-38.474-36.792-82.209-36.806-126.477-.027-75.783 36.403-145.384 98.015-188.39l6.983 14.971c1.647 3.531 5.187 5.772 9.064 5.772 3.029 0 5.922-1.377 7.832-3.783l41.7-52.54c2.354-2.967 2.831-7.01 1.23-10.443s-5.004-5.667-8.79-5.77l-67.06-1.83c-3.479-.093-6.731 1.611-8.633 4.509s-2.168 6.573-.703 9.714l9.813 21.037c-69.769 47.392-109.48 125.412-109.451 206.76.016 48.02 13.795 95.42 39.85 137.076zm115.642-357.819-19.208 24.202-11.682-25.045z"/></g></g></svg>