<svg height="511pt" viewBox="-66 1 511 511.999" width="511pt" xmlns="http://www.w3.org/2000/svg"><path d="m172.367188 8.324219c-47.195313 0-85.453126 38.257812-85.453126 85.453125v33.550781c5.710938-5.292969 15.835938-8.167969 23.769532-7.109375v-4.257812c0-3.386719 2.890625-6.058594 6.238281-5.808594 33.039063 2.375 64.664063-6.125 90.085937-22.730469 2.371094-1.550781 5.515626-1.164063 7.445313.90625 21.734375 23.363281 19.601563 20.460937 19.601563 23.507813v8.363281c8.695312-1.304688 18.40625 1.382812 23.761718 6.363281v-32.785156c0-47.195313-38.253906-85.453125-85.449218-85.453125zm0 0" fill="#707487"/><path d="m116.914062 93.777344c0-42.074219 30.414063-77.019532 70.453126-84.113282-4.875-.863281-9.882813-1.339843-15.003907-1.339843-47.191406 0-85.449219 38.257812-85.449219 85.453125v33.550781c5.710938-5.292969 15.835938-8.171875 23.765626-7.109375v-4.257812c0-3.382813 2.886718-6.054688 6.234374-5.808594zm0 0" fill="#5e6377"/><path d="m235.054688 118.199219v46.808593c0 .507813-.027344 1.007813-.039063 1.515626 16.5625 2.507812 29.539063-9.460938 29.539063-24.160157 0-14.730469-12.984376-26.640625-29.5-24.164062zm0 0" fill="#f0a479"/><path d="m254.054688 122.34375c-5.101563-3.523438-11.707032-5.238281-19-4.144531v46.808593c0 .507813-.027344 1.011719-.039063 1.515626 7.316406 1.109374 13.933594-.613282 19.039063-4.144532zm0 0" fill="#e5966e"/><path d="m109.679688 165.007812v-46.789062c-14.421876-1.925781-29.5 9.140625-29.5 24.144531 0 14.679688 12.945312 26.671875 29.539062 24.160157-.011719-.507813-.039062-1.007813-.039062-1.515626zm0 0" fill="#f0a479"/><path d="m109.679688 162.382812c-6.457032-4.460937-10.5-11.820312-10.5-20.019531 0-8.011719 4.300781-14.898437 10.5-19.285156v-4.863281c-14.417969-1.925782-29.5 9.144531-29.5 24.148437 0 14.679688 12.945312 26.671875 29.539062 24.160157-.011719-.507813-.039062-1.007813-.039062-1.515626zm0 0" fill="#e5966e"/><path d="m173.277344 225.785156c-13.804688 0-25.9375-3.789062-35.863282-10.128906v33.007812l35.707032 44.074219 35.707031-44.074219v-33.953124c-10.113281 6.976562-22.363281 11.074218-35.550781 11.074218zm0 0" fill="#f0a479"/><path d="m167.417969 225.542969c-11.394531-.914063-21.507813-4.460938-30.003907-9.886719v33.007812l30.003907 37.03125zm0 0" fill="#e5966e"/><path d="m303.289062 283.246094-61.1875-23.699219-25.867187 51.839844c-1.542969 3.089843-5.480469 4.078125-8.300781 2.074219l-33.78125-23.992188-1.03125 1.269531-1.007813-1.246093-33.753906 23.972656c-2.820313 2-6.757813 1.015625-8.300781-2.078125l-25.867188-51.84375-61.136718 23.703125s-34.9375 14.363281-34.9375 54.191406v156.246094c0 6.429687 5.214843 11.640625 11.640624 11.640625h306.824219c6.429688 0 11.640625-5.214844 11.640625-11.640625 0-29.113282 0-120.207032 0-156.246094.003906-39.828125-34.933594-54.191406-34.933594-54.191406zm0 0" fill="#e4eaf8"/><path d="m38.121094 493.683594c0-29.113282 0-142.546875 0-178.585938 0-14.597656 4.699218-25.761718 10.644531-34.066406l-5.710937 2.214844s-34.9375 14.363281-34.9375 54.191406v156.246094c0 6.425781 5.214843 11.640625 11.640624 11.640625h30.003907c-6.429688 0-11.640625-5.214844-11.640625-11.640625zm0 0" fill="#d8dce5"/><path d="m214.449219 84.328125c-1.929688-2.070313-5.070313-2.457031-7.441407-.90625-25.425781 16.605469-59.046874 27.105469-92.085937 24.730469-3.351563-.253906-6.242187 2.421875-6.242187 5.804687v51.050781c0 32.808594 25.710937 62.777344 64.597656 62.777344 34.613281 0 62.777344-28.160156 62.777344-62.777344v-55.171874c0-3.046876.128906-2.144532-21.605469-25.507813zm0 0" fill="#f7b594"/><path d="m138.683594 165.007812v-57.28125c-7.875.816407-15.832032.996094-23.761719.425782-3.351563-.253906-6.242187 2.421875-6.242187 5.804687v51.050781c0 32.8125 25.710937 62.777344 64.597656 62.777344 4.988281 0 9.832031-.601562 14.488281-1.707031-30.058594-6.757813-49.082031-32.851563-49.082031-61.070313zm0 0" fill="#f0a479"/><path d="m209.4375 462.160156-23.019531-136.015625c-15.28125 0-11.277344 0-26.558594 0l-23 136.015625c-.242187 1.746094.269531 3.515625 1.363281 4.71875l30.3125 33.386719c2.460938 2.710937 6.722656 2.714844 9.1875.003906l30.351563-33.390625c1.089843-1.203125 1.601562-2.972656 1.363281-4.71875zm0 0" fill="#707487"/><path d="m168.222656 466.878906c-1.09375-1.203125-1.605468-2.972656-1.363281-4.71875l21.28125-125.839844-1.722656-10.175781c-15.28125 0-11.277344 0-26.558594 0l-23 136.015625c-.242187 1.742188.269531 3.515625 1.363281 4.71875l30.3125 33.386719c2.460938 2.710937 6.722656 2.710937 9.1875.003906l10.414063-11.457031zm0 0" fill="#52586d"/><path d="m173.167969 290.769531v-.03125l-.019531.015625-.023438-.015625v.03125l-25.320312 16.980469 11.96875 19.015625h26.746093l11.96875-19.015625zm0 0" fill="#434a5e"/><path d="m216.234375 313.386719 26.703125-53.515625-34.109375-13.207032-35.707031 44.074219 34.8125 24.722657c2.820312 2.003906 6.757812 1.015624 8.300781-2.074219zm0 0" fill="#d8dce5"/><path d="m130.058594 313.386719-26.699219-53.515625 34.105469-13.207032 35.707031 44.074219-34.8125 24.722657c-2.816406 2.003906-6.757813 1.015624-8.300781-2.074219zm0 0" fill="#d8dce5"/><path d="m373.101562 443.296875c0 34.257813-27.773437 62.027344-62.027343 62.027344-34.257813 0-62.03125-27.769531-62.03125-62.027344s27.773437-62.027344 62.03125-62.027344c34.253906 0 62.027343 27.769531 62.027343 62.027344zm0 0" fill="#6fd844"/><path d="m278.957031 443.296875c0-29.097656 20.039063-53.507813 47.070313-60.199219-4.789063-1.1875-9.796875-1.828125-14.953125-1.828125-34.257813 0-62.027344 27.769531-62.027344 62.027344s27.769531 62.027344 62.027344 62.027344c5.15625 0 10.164062-.640625 14.953125-1.824219-27.03125-6.695312-47.070313-31.105469-47.070313-60.203125zm0 0" fill="#5fbf32"/><path d="m362.109375 17.566406h-127.355469c-6.046875 0-10.992187 4.945313-10.992187 10.992188v99.792968c0 6.046876 4.945312 10.992188 10.992187 10.992188h91.007813c1.320312 0 2.296875 1.199219 2.0625 2.5-1.566407 8.765625-6.007813 16.535156-12.3125 22.300781-4.125 3.773438-1.253907 10.675781 4.332031 10.382813.144531-.011719.289062-.019532.433594-.027344 18.570312-1.179688 33.816406-15.265625 36.71875-33.386719.164062-1.019531 1.039062-1.769531 2.070312-1.769531h3.039063c6.046875 0 10.992187-4.945312 10.992187-10.992188v-99.792968c.003906-6.046875-4.945312-10.992188-10.988281-10.992188zm0 0" fill="#00aaf0"/><path d="m357 141.113281c.054688-.359375.207031-.679687.414062-.949219-.378906-.492187-.964843-.820312-1.648437-.820312h-30.003906c1.320312 0 2.296875 1.199219 2.0625 2.5-1.570313 8.765625-6.007813 16.535156-12.3125 22.300781-4.125 3.773438-1.253907 10.675781 4.332031 10.382813.144531-.011719.289062-.019532.433594-.027344 18.570312-1.179688 33.816406-15.269531 36.722656-33.386719zm0 0" fill="#059adb"/><path d="m253.761719 128.351562v-99.792968c0-6.046875 4.949219-10.992188 10.992187-10.992188h-30c-6.046875 0-10.992187 4.945313-10.992187 10.992188v99.792968c0 6.046876 4.945312 10.992188 10.992187 10.992188h30c-6.042968 0-10.992187-4.945312-10.992187-10.992188zm0 0" fill="#059adb"/><path d="m334.371094 421.699219-29.449219 29.445312-13.277344-13.277343c-2.929687-2.929688-7.679687-2.929688-10.609375 0-2.929687 2.929687-2.929687 7.679687 0 10.605468l18.582032 18.585938c2.929687 2.925781 7.679687 2.929687 10.609374 0l34.75-34.753906c2.929688-2.929688 2.929688-7.679688 0-10.605469-2.929687-2.929688-7.675781-2.929688-10.605468 0zm0 0"/><path d="m40.226562 275.425781c-.046874.019531-.09375.039063-.140624.058594-1.617188.664063-39.585938 16.785156-39.585938 61.128906v156.242188c0 10.554687 8.585938 19.144531 19.144531 19.144531h291.3125c30.089844 0 56.625-19.199219 66.035157-47.777344 1.296874-3.933594-.84375-8.171875-4.777344-9.46875-3.9375-1.296875-8.175782.84375-9.46875 4.777344-7.378906 22.410156-28.191406 37.46875-51.789063 37.46875-34.378906 0-60.367187-31.636719-53.417969-65.503906 5.09375-24.824219 27.109376-43.550782 53.417969-43.550782h.070313c24.699218.035157 46.46875 16.699219 52.714844 40.8125 1.039062 4.007813 5.132812 6.421876 9.140624 5.378907 4.011719-1.039063 6.417969-5.128907 5.382813-9.140625-4.808594-18.558594-16.863281-33.71875-32.65625-42.796875v-45.585938c0-44.34375-37.96875-60.464843-39.585937-61.128906-.046876-.019531-.09375-.039063-.144532-.058594l-89.667968-34.722656v-21.03125c14.242187-11.074219 24.117187-27.496094 26.597656-46.226563 15.628906-1.101562 27.710937-12.660156 29.800781-27.421874h45.886719c-1.796875 4.449218-4.589844 8.496093-8.164063 11.765624-4.25 3.886719-5.554687 9.835938-3.324219 15.15625 2.113282 5.046876 6.972657 8.609376 13.628907 8.21875 20.289062-1.289062 37.578125-15.796874 42.699219-35.191406 9.570312-.691406 17.148437-8.699218 17.148437-18.441406v-99.796875c0-10.199219-8.296875-18.492187-18.492187-18.492187h-46.179688c-4.140625 0-7.5 3.355468-7.5 7.5 0 4.140624 3.359375 7.5 7.5 7.5h46.179688c1.890624 0 3.488281 1.597656 3.488281 3.492187v99.792969c0 1.894531-1.597657 3.492187-3.488281 3.492187h-3.042969c-4.738281 0-8.722657 3.398438-9.472657 8.082031-2.15625 13.4375-12.742187 24.085938-25.878906 26.59375 5.910156-6.539062 9.941406-14.6875 11.492188-23.355468 1.054687-5.894532-3.457032-11.320313-9.445313-11.320313-7.273437 0-88.132812 0-91.011719 0-1.890624 0-3.488281-1.601562-3.488281-3.492187 0-24.597656 0-95.398438 0-99.792969 0-1.796875 1.53125-3.492187 3.488281-3.492187h46.179688c4.140625 0 7.5-3.359376 7.5-7.5 0-4.144532-3.359375-7.5-7.5-7.5h-46.179688c-4.941406 0-9.425781 1.957031-12.746093 5.128906-14.835938-9.421875-31.835938-14.371094-49.636719-14.371094-51.253906 0-92.953125 41.699219-92.953125 92.953125v28.511719c-5.007813 5.675781-7.734375 12.664062-7.734375 20.074218 0 16.585938 12.738281 30.679688 30.117188 31.90625 2.5 19.082032 12.664062 36.113282 28.117187 47.339844v19.917969zm192.203126-12.355469-22.050782 44.1875c-.539062-.382812-8.882812-6.3125-26.515625-18.832031l27.234375-33.617187zm-96.753907 44.1875-22.046875-44.1875 21.292969-8.25 27.242187 33.625c-13.851562 9.835938-25.230468 17.921876-26.488281 18.8125zm30.316407 26.183594h14.074218l21.707032 128.261719-28.742188 31.621094-28.746094-31.621094zm16.390624-15.003906h-18.703124l-5.71875-8.605469 15.070312-10.703125 15.066406 10.703125zm-166.882812 174.421875v-156.246094c0-33.777343 28.503906-46.492187 30.246094-47.238281l53.832031-20.867188 23.652344 47.398438v.003906c1.714843 3.4375 4.835937 5.941406 8.5625 6.875 6.640625 1.660156 10.667969-1.945312 13.929687-4.261718l6.042969 9.09375-22.421875 132.464843c-.011719.074219-.023438.152344-.035156.226563-.542969 3.921875.671875 7.957031 3.246094 10.789062l23.542968 25.902344h-81.136718v-146.699219c0-4.140625-3.355469-7.5-7.5-7.5-4.144532 0-7.5 3.359375-7.5 7.5v146.699219h-40.316407c-2.285156 0-4.144531-1.859375-4.144531-4.140625zm315.109375-156.246094v39.144531c-6.507813-1.921874-13.304687-2.8125-19.652344-2.8125-8.738281 0-17.097656 1.632813-24.808593 4.589844v-27.234375c0-4.140625-3.359376-7.5-7.5-7.5-4.144532 0-7.5 3.359375-7.5 7.5v35.21875c-16.125 11.304688-27.261719 29.257813-29.363282 49.855469-2.40625 23.640625 7.355469 46.796875 26.078125 61.625h-77.902343l23.542968-25.902344c2.574219-2.832031 3.785156-6.863281 3.246094-10.789062-.011719-.074219-.023438-.148438-.035156-.222656l-22.421875-132.46875 6.042969-9.09375 3.136718 2.226562c6.589844 4.679688 15.769532 2.347656 19.355469-4.84375l23.652344-47.398438 53.875 20.863282c1.949219.839844 30.253906 13.585937 30.253906 47.242187zm-73.277344-190.59375c-1.730469 6.300781-6.980469 11.132813-13.894531 12.257813v-12.257813zm-163.035156-53.066406c0-42.984375 34.96875-77.953125 77.949219-77.953125 15.84375 0 30.933594 4.667969 43.894531 13.539062v47.066407c-3.777344-1.941407-8.464844-2-12.421875.160156-.316406.171875-.628906.351563-.933594.554687-26.128906 17.066407-58.007812 25.644532-87.414062 23.53125-6.527344-.496093-12.347656 3.855469-13.90625 10.046876-2.398438.273437-5.128906.921874-7.167969 1.613281zm-7.734375 48.585937c0-7.972656 6.601562-14.535156 14.5-16.363281v33.101563c-8.71875-1.414063-14.5-8.621094-14.5-16.738282zm29.503906 22.644532c0-10.796875 0-39.71875 0-49.257813 31.703125 1.855469 65.671875-7.308593 93.734375-25.28125 3.246094 3.480469 6.339844 6.789063 6.339844 6.789063v31.09375c0 7.863281 5.046875 14.839844 12.292969 17.421875v19.234375c0 30.441406-24.820313 55.277344-55.273438 55.277344-34.199218 0-57.09375-26.476563-57.09375-55.277344zm57.09375 70.277344c9.910156 0 19.699219-2.1875 28.050782-5.847657v14.570313l-28.179688 34.785156-28.230469-34.847656v-14.039063c9.121094 3.671875 18.859375 5.378907 28.359375 5.378907zm0 0"/><path d="m338.457031 98.714844h-80.285156c-4.144531 0-7.503906 3.355468-7.503906 7.5 0 4.140625 3.359375 7.5 7.503906 7.5h80.285156c4.140625 0 7.5-3.359375 7.5-7.5 0-4.144532-3.359375-7.5-7.5-7.5zm0 0"/><path d="m338.457031 70.6875h-80.285156c-4.144531 0-7.503906 3.359375-7.503906 7.503906 0 4.140625 3.359375 7.5 7.503906 7.5h80.285156c4.140625 0 7.5-3.359375 7.5-7.5 0-4.144531-3.359375-7.503906-7.5-7.503906zm0 0"/><path d="m338.457031 42.667969h-80.285156c-4.144531 0-7.503906 3.355469-7.503906 7.5 0 4.140625 3.359375 7.5 7.503906 7.5h80.285156c4.140625 0 7.5-3.359375 7.5-7.5 0-4.144531-3.359375-7.5-7.5-7.5zm0 0"/></svg>